<?xml version="1.0" encoding="UTF-8" standalone="no"?>
<svg width="340px" height="340px" viewBox="0 0 340 340" version="1.1" xmlns="http://www.w3.org/2000/svg" xmlns:xlink="http://www.w3.org/1999/xlink" xmlns:sketch="http://www.bohemiancoding.com/sketch/ns">
    <style>
        .circle-protection {
          transform: scale(1.1);
          transform-origin: center center;
          opacity: 0;
          animation: circle-protection 0.4s ease-in-out forwards;
          animation-delay: 0.2s;
        }
        .circle-protection.hover {
          animation: circle-protection-final 0s ease-in-out forwards;
        }
        #intro:hover .circle-protection.hover {
          animation: circle-protection 0.4s ease-in-out forwards;
          animation-delay: 0.2s;
        }
        @keyframes circle-protection {
          0%    {transform: scale(1.3); opacity: 0;}
          50%  {transform: scale(.97);}
          80%  {transform: scale(1.02);}
          100%  {transform: scale(1); opacity: 1;}
        }
        @keyframes circle-protection-final {
          100%  {transform: scale(1); opacity: 1;}
        }

        .attack {
          transform: scale(1);
          transform-origin: center center;
          opacity: 1;
          animation: attack 0.2s ease-in-out forwards;
          animation-delay: 0.4s;
        }
        .attack.hover {
          animation: attack-final 0s ease-in-out forwards;
        }
        #intro:hover .attack.hover {
          animation: attack 0.2s ease-in-out forwards;
          animation-delay: 0.4s;
        }
        @keyframes attack {
          0%    {transform: scale(1); opacity: 1;}
          100%  {transform: scale(.2); opacity: 0;}
        }
        @keyframes attack-final {
          100%  {transform: scale(.2); opacity: 0;}
        }

        .rescue {
          transform: scale(0.6);
          transform-origin: center center;
          opacity: 0;
          animation: rescue 0.5s ease-in-out forwards;
          animation-delay: 0.5s;
        }
        .rescue.hover {
          animation: rescue-final 0s ease-in-out forwards;
        }
        #intro:hover .rescue.hover {
          animation: rescue 0.5s ease-in-out forwards;
          animation-delay: 0.5s;
        }
        @keyframes rescue {
          0%    {transform: scale(.2); opacity: 0;}
          80%  {transform: scale(1.1);}
          100%  {transform: scale(1); opacity: 1;}
        }
        @keyframes rescue-final {
          100%  {transform: scale(1); opacity: 1;}
        }

    </style>
    <defs>
        <filter x="-50%" y="-50%" width="200%" height="200%" filterUnits="objectBoundingBox" id="filter-1">
            <feOffset dx="0" dy="1" in="SourceAlpha" result="shadowOffsetOuter1"></feOffset>
            <feGaussianBlur stdDeviation="3.5" in="shadowOffsetOuter1" result="shadowBlurOuter1"></feGaussianBlur>
            <feColorMatrix values="0 0 0 0 0   0 0 0 0 0   0 0 0 0 0  0 0 0 0.07 0" in="shadowBlurOuter1" type="matrix" result="shadowMatrixOuter1"></feColorMatrix>
            <feMerge>
                <feMergeNode in="shadowMatrixOuter1"></feMergeNode>
                <feMergeNode in="SourceGraphic"></feMergeNode>
            </feMerge>
        </filter>
        <linearGradient x1="50%" y1="100%" x2="50%" y2="3.061617e-15%" id="linearGradient-2">
            <stop stop-color="#DEDEDE" offset="0%"></stop>
            <stop stop-color="#FFFFFF" offset="100%"></stop>
        </linearGradient>
        <filter x="-50%" y="-50%" width="200%" height="200%" filterUnits="objectBoundingBox" id="filter-3">
            <feOffset dx="0" dy="-1" in="SourceAlpha" result="shadowOffsetInner1"></feOffset>
            <feGaussianBlur stdDeviation="0" in="shadowOffsetInner1" result="shadowBlurInner1"></feGaussianBlur>
            <feComposite in="shadowBlurInner1" in2="SourceAlpha" operator="arithmetic" k2="-1" k3="1" result="shadowInnerInner1"></feComposite>
            <feColorMatrix values="0 0 0 0 1   0 0 0 0 1   0 0 0 0 1  0 0 0 0.35 0" in="shadowInnerInner1" type="matrix" result="shadowMatrixInner1"></feColorMatrix>
            <feMerge>
                <feMergeNode in="SourceGraphic"></feMergeNode>
                <feMergeNode in="shadowMatrixInner1"></feMergeNode>
            </feMerge>
        </filter>
        <filter x="-50%" y="-50%" width="200%" height="200%" filterUnits="objectBoundingBox" id="filter-4">
            <feOffset dx="0" dy="-1" in="SourceAlpha" result="shadowOffsetInner1"></feOffset>
            <feGaussianBlur stdDeviation="0" in="shadowOffsetInner1" result="shadowBlurInner1"></feGaussianBlur>
            <feComposite in="shadowBlurInner1" in2="SourceAlpha" operator="arithmetic" k2="-1" k3="1" result="shadowInnerInner1"></feComposite>
            <feColorMatrix values="0 0 0 0 1   0 0 0 0 1   0 0 0 0 1  0 0 0 0.35 0" in="shadowInnerInner1" type="matrix" result="shadowMatrixInner1"></feColorMatrix>
            <feMerge>
                <feMergeNode in="SourceGraphic"></feMergeNode>
                <feMergeNode in="shadowMatrixInner1"></feMergeNode>
            </feMerge>
        </filter>
        <filter x="-50%" y="-50%" width="200%" height="200%" filterUnits="objectBoundingBox" id="filter-5">
            <feOffset dx="0" dy="-1" in="SourceAlpha" result="shadowOffsetInner1"></feOffset>
            <feGaussianBlur stdDeviation="0" in="shadowOffsetInner1" result="shadowBlurInner1"></feGaussianBlur>
            <feComposite in="shadowBlurInner1" in2="SourceAlpha" operator="arithmetic" k2="-1" k3="1" result="shadowInnerInner1"></feComposite>
            <feColorMatrix values="0 0 0 0 1   0 0 0 0 1   0 0 0 0 1  0 0 0 0.35 0" in="shadowInnerInner1" type="matrix" result="shadowMatrixInner1"></feColorMatrix>
            <feMerge>
                <feMergeNode in="SourceGraphic"></feMergeNode>
                <feMergeNode in="shadowMatrixInner1"></feMergeNode>
            </feMerge>
        </filter>
        <filter x="-50%" y="-50%" width="200%" height="200%" filterUnits="objectBoundingBox" id="filter-6">
            <feOffset dx="0" dy="-1" in="SourceAlpha" result="shadowOffsetInner1"></feOffset>
            <feGaussianBlur stdDeviation="0" in="shadowOffsetInner1" result="shadowBlurInner1"></feGaussianBlur>
            <feComposite in="shadowBlurInner1" in2="SourceAlpha" operator="arithmetic" k2="-1" k3="1" result="shadowInnerInner1"></feComposite>
            <feColorMatrix values="0 0 0 0 1   0 0 0 0 1   0 0 0 0 1  0 0 0 0.35 0" in="shadowInnerInner1" type="matrix" result="shadowMatrixInner1"></feColorMatrix>
            <feMerge>
                <feMergeNode in="SourceGraphic"></feMergeNode>
                <feMergeNode in="shadowMatrixInner1"></feMergeNode>
            </feMerge>
        </filter>
    </defs>
    <g id="intro">
        <g id="design" stroke="none" stroke-width="1" fill="none" fill-rule="evenodd" sketch:type="MSPage">
            <g id="illustration" sketch:type="MSArtboardGroup">
                <rect id="bg-test" fill="rgba(0,0,0,0.01)" sketch:type="MSShapeGroup" x="0" y="0" width="340" height="340"></rect>
                <g id="office" sketch:type="MSLayerGroup" transform="translate(20.000000, 20.000000)">
                    <circle id="circle-protection" class="circle-protection" stroke="#D61836" stroke-width="2" filter="url(#filter-1)" sketch:type="MSShapeGroup" cx="150" cy="150" r="150"></circle>
                    <path d="M225.905191,98 L227.115158,98 C237.143983,112.843449 243,130.737851 243,150 C243,167.981742 237.896638,184.77153 229.059278,199 L227.87946,199 C236.824453,184.81288 242,168.010847 242,150 C242,130.702473 236.058566,112.792642 225.905191,98 Z M189,66.6512036 L189,65.5478464 C177.139162,60.0613542 163.92709,57 150,57 C136.463073,57 123.601663,59.8922311 112,65.0924634 L112,66.1897993 C123.58324,60.9295319 136.449506,58 150,58 C163.941698,58 177.15909,61.1011253 189.000005,66.6512058 Z M74.0948093,98 L72.8848417,98 C62.8560165,112.843449 57,130.737851 57,150 C57,167.981742 62.1033618,184.77153 70.9407216,199 L72.1205401,199 C63.1755467,184.81288 58,168.010847 58,150 C58,130.702473 63.9414341,112.792642 74.0948093,98 Z M112,233.810201 L112,234.907537 C123.601663,240.107769 136.463073,243 150,243 C163.92709,243 177.139162,239.938646 189,234.452154 L189,233.348796 C177.15909,238.898875 163.941698,242 150,242 C136.449506,242 123.58324,239.070468 112,233.810201 Z" id="circle" opacity="0.222831157" fill="#D61836" sketch:type="MSShapeGroup"></path>
                    <g class="rescue r3">
                      <path d="M198,67.0029293 C198,66.4490268 198.439813,66 198.996535,66 L225.003465,66 C225.553836,66 226,66.4378814 226,67.0029293 L226,71.9970707 C226,72.5509732 225.560187,73 225.003465,73 L198.996535,73 C198.446164,73 198,72.5621186 198,71.9970707 L198,67.0029293 Z M202.5,71 C203.328427,71 204,70.3284271 204,69.5 C204,68.6715729 203.328427,68 202.5,68 C201.671573,68 201,68.6715729 201,69.5 C201,70.3284271 201.671573,71 202.5,71 Z M214,69.5 C214,69.2238576 214.222473,69 214.509666,69 L222.490334,69 C222.771815,69 223,69.2319336 223,69.5 C223,69.7761424 222.777527,70 222.490334,70 L214.509666,70 C214.228185,70 214,69.7680664 214,69.5 Z M198,75.0029293 C198,74.4490268 198.439813,74 198.996535,74 L225.003465,74 C225.553836,74 226,74.4378814 226,75.0029293 L226,79.9970707 C226,80.5509732 225.560187,81 225.003465,81 L198.996535,81 C198.446164,81 198,80.5621186 198,79.9970707 L198,75.0029293 Z M202.5,79 C203.328427,79 204,78.3284271 204,77.5 C204,76.6715729 203.328427,76 202.5,76 C201.671573,76 201,76.6715729 201,77.5 C201,78.3284271 201.671573,79 202.5,79 Z M214,77.5 C214,77.2238576 214.222473,77 214.509666,77 L222.490334,77 C222.771815,77 223,77.2319336 223,77.5 C223,77.7761424 222.777527,78 222.490334,78 L214.509666,78 C214.228185,78 214,77.7680664 214,77.5 Z M198,83.0029293 C198,82.4490268 198.439813,82 198.996535,82 L225.003465,82 C225.553836,82 226,82.4378814 226,83.0029293 L226,87.9970707 C226,88.5509732 225.560187,89 225.003465,89 L198.996535,89 C198.446164,89 198,88.5621186 198,87.9970707 L198,83.0029293 Z M202.5,87 C203.328427,87 204,86.3284271 204,85.5 C204,84.6715729 203.328427,84 202.5,84 C201.671573,84 201,84.6715729 201,85.5 C201,86.3284271 201.671573,87 202.5,87 Z M214,85.5 C214,85.2238576 214.222473,85 214.509666,85 L222.490334,85 C222.771815,85 223,85.2319336 223,85.5 C223,85.7761424 222.777527,86 222.490334,86 L214.509666,86 C214.228185,86 214,85.7680664 214,85.5 Z" id="server" fill="url(#linearGradient-2)" filter="url(#filter-3)" sketch:type="MSShapeGroup"></path>
                    </g>
                    <g class="rescue r-2">
                      <path d="M215.887648,224 L217.186619,223 L206.813381,223 L208.112352,224 L215.887648,224 Z M214.588678,225 L214.3844,225.157261 C213.063845,226.173878 210.932468,226.171039 209.6156,225.157261 L209.411322,225 L214.588678,225 Z M218.48559,222 L219.784561,221 L204.215439,221 L205.51441,222 L218.48559,222 Z M220,220.834146 L222,219.294465 L222,217 L224.980443,217 L225,216.984944 L222,216.984944 L222,213.125538 L226,215.984944 L222,215.984944 L222,215.984944 L226,215.984944 L226,232.003808 C226,232.556721 225.560187,233.004945 225.003465,233.004945 L198.996535,233.004945 C198.446164,233.004945 198,232.549701 198,232.003808 L198,215.984944 L202,215.984944 L202,213.125538 L198,215.984944 L202,215.984944 L202,216.984944 L199,216.984944 L199.019557,217 L202,217 L202,219.294465 L204,220.834146 L204,220 L220,220 L220,220.834146 Z M221.824386,213 L214.438614,207.720268 C213.098557,206.762326 210.908195,206.757499 209.561386,207.720268 L202.175614,213 L221.824386,213 Z M202,213 L222,213 L222,214 L202,214 L202,213 Z M204,216 L210,216 L210,217 L204,217 L204,216 Z M204,218 L220,218 L220,219 L204,219 L204,218 Z" id="mail" fill="url(#linearGradient-2)" filter="url(#filter-4)" sketch:type="MSShapeGroup"></path>
                    </g>
                    <g class="rescue">
                      <path d="M84.9499909,221 L86,221 L86,214 L79,214 L79,221 L80.0500091,221 C80.0172151,220.838445 80,220.671233 80,220.5 C80,219.119288 81.1192881,218 82.5,218 C83.8807119,218 85,219.119288 85,220.5 C85,220.671233 84.9827849,220.838445 84.9499909,221 Z M99,210 L102.003465,210 C102.553836,210 103,210.455306 103,210.991803 L103,229.008197 C103,229.555955 102.560187,230 102.003465,230 L75.9965348,230 C75.4461638,230 75,229.544694 75,229.008197 L75,210.991803 C75,210.444045 75.4398131,210 75.9965348,210 L79,210 L79,212 L83,212 L83,210 L95,210 L95,212 L99,212 L99,210 Z M75,231 L103,231 L103,231.5 C103,231.776142 102.774616,232 102.490106,232 L75.5098944,232 C75.2282875,232 75,231.768066 75,231.5 L75,231 Z M79,223.502699 C79,223.226881 79.2278805,223.003287 79.4910052,223.003287 L84.5089948,223.003287 C84.7801695,223.003287 85,223.234948 85,223.502699 C85,223.778517 84.7721195,224.002112 84.5089948,224.002112 L79.4910052,224.002112 C79.2198305,224.002112 79,223.770451 79,223.502699 Z M79,225.500349 C79,225.224531 79.226181,225.000936 79.4963932,225.000936 L94.5036068,225.000936 C94.7777572,225.000936 95,225.232597 95,225.500349 C95,225.776167 94.773819,225.999761 94.5036068,225.999761 L79.4963932,225.999761 C79.2222428,225.999761 79,225.7681 79,225.500349 Z M80,208 L82,208 L82,211 L80,211 L80,208 Z M96,208 L98,208 L98,211 L96,211 L96,208 Z M82.5,218 C83.3284271,218 84,217.328427 84,216.5 C84,215.671573 83.3284271,215 82.5,215 C81.6715729,215 81,215.671573 81,216.5 C81,217.328427 81.6715729,218 82.5,218 Z" id="identiy-" fill="url(#linearGradient-2)" filter="url(#filter-5)" sketch:type="MSShapeGroup"></path>
                    </g>
                    <g class="rescue r-4">
                      <path d="M96,86.101981 L96.3805981,86 L101.005229,86 C101.549075,86 102,85.55091 102,84.9969294 L102,66.0015353 L102,68 L97,63 L99.0026144,63 L83.9947712,63 C83.4509254,63 83,63.44909 83,64.0030706 L83,64.8885194 L83,87 L82,87 L82,66.0419175 L75.9608752,67.6600961 C75.4355605,67.8008538 75.116233,68.3513495 75.2596138,68.8864536 L80.6932243,89.1649641 C80.8392378,89.7098939 81.3830365,90.0185845 81.9137132,89.8763901 L92.6485473,87 L83,87 L83,86 L96,86 L96,86.101981 Z M97,63 L96,63 L96,68 L97,68 L97,63 Z M96,68 L102,68 L102,69 L96,69 L96,68 Z" id="doc" fill="url(#linearGradient-2)" filter="url(#filter-6)" sketch:type="MSShapeGroup"></path>
                    </g>
                </g>
                <g id="building" sketch:type="MSLayerGroup" transform="translate(130.000000, 127.000000)">
                    <rect stroke="#FFFFFF" stroke-width="2" sketch:type="MSShapeGroup" x="27" y="19" width="26" height="53"></rect>
                    <rect id="building-copy-3" stroke="#FFFFFF" stroke-width="2" sketch:type="MSShapeGroup" x="32" y="12" width="16" height="7"></rect>
                    <rect id="Rectangle-13" fill="#FFFFFF" sketch:type="MSShapeGroup" x="39" y="0" width="2" height="13" rx="1"></rect>
                    <g id="side" transform="translate(11.000000, 38.000000)" sketch:type="MSShapeGroup">
                        <rect id="Rectangle-13-Copy" fill="#FFFFFF" x="49" y="0" width="2" height="8" rx="1"></rect>
                        <rect id="Rectangle-13-Copy-2" fill="#FFFFFF" x="7" y="0" width="2" height="8" rx="1"></rect>
                        <rect id="building-copy" stroke="#FFFFFF" stroke-width="2" x="0" y="7" width="16" height="27"></rect>
                        <rect id="building-copy-2" stroke="#FFFFFF" stroke-width="2" x="42" y="7" width="16" height="27"></rect>
                    </g>
                    <g id="Group" transform="translate(32.000000, 24.000000)" fill="#FFFFFF" sketch:type="MSShapeGroup">
                        <rect id="Rectangle-4" x="0" y="0" width="16" height="2" rx="1"></rect>
                        <rect id="Rectangle-4-Copy" x="0" y="6" width="16" height="2" rx="1"></rect>
                        <rect id="Rectangle-4-Copy-2" x="0" y="12" width="16" height="2" rx="1"></rect>
                        <rect id="Rectangle-4-Copy-3" x="0" y="18" width="16" height="2" rx="1"></rect>
                        <rect id="Rectangle-4-Copy-4" x="0" y="24" width="16" height="2" rx="1"></rect>
                        <rect id="Rectangle-4-Copy-5" x="0" y="30" width="16" height="2" rx="1"></rect>
                    </g>
                    <rect id="floor" fill="#FFFFFF" sketch:type="MSShapeGroup" x="0" y="71" width="80" height="2"></rect>
                </g>
                <g id="attacks" sketch:type="MSLayerGroup" transform="translate(88.000000, 77.000000)">
                  <g class="attack">
                    <g id="attack-1" transform="translate(0.000000, 141.000000)" sketch:type="MSShapeGroup">
                        <rect id="bounds" fill="#D61836" x="0" y="0" width="44" height="44" rx="100"></rect>
                        <path d="M8,19 C8,18.4477153 8.43981314,18 8.99653482,18 L35.0034652,18 C35.5538362,18 36,18.4438648 36,19 L36,19 C36,19.5522847 35.5601869,20 35.0034652,20 L8.99653482,20 C8.44616384,20 8,19.5561352 8,19 L8,19 Z" id="Rectangle-266" fill="#FFFFFF"></path>
                        <path d="M12,16 L16,6 L22,10 L28,6 L32,16 L12,16 Z M17,10 L16,14 L20,14 L17,10 Z" id="Path-38" fill="#FFFFFF"></path>
                        <g id="Group" transform="translate(10.000000, 22.000000)">
                            <rect id="Rectangle-287" fill="#FFFFFF" x="2" y="0" width="6" height="6"></rect>
                            <rect id="Rectangle-288" fill="#FFFFFF" x="0" y="0" width="24" height="2"></rect>
                            <rect id="Rectangle-287" fill="#FFFFFF" x="16" y="0" width="6" height="6"></rect>
                            <path d="M18,12 C18,9.790861 15.3137085,8 12,8 C8.6862915,8 6,9.790861 6,12 L18,12 Z" id="Oval-121" fill="#FFFFFF"></path>
                            <path d="M14,14 C14,15.1045695 13.1045695,16 12,16 C10.8954305,16 10,15.1045695 10,14 L14,14 Z" id="Oval-122" fill="#FFFFFF"></path>
                            <rect id="Rectangle-290" fill="#D61836" x="10" y="4" width="4" height="6" rx="4"></rect>
                        </g>
                        <path d="M14,14 L12,18" id="Path-40" stroke="#FFFFFF" stroke-width="2"></path>
                        <path d="M32,14 L30,18" id="Path-40" stroke="#FFFFFF" stroke-width="2" transform="translate(31.000000, 16.000000) scale(-1, 1) translate(-31.000000, -16.000000) "></path>
                    </g>
                  </g>
                  <g class="attack a-2">
                    <g id="attack-2" transform="translate(122.000000, 141.000000)" sketch:type="MSShapeGroup">
                        <rect id="bounds" fill="#D61836" x="0" y="0" width="44" height="44" rx="100"></rect>
                        <path d="M8,19 C8,18.4477153 8.43981314,18 8.99653482,18 L35.0034652,18 C35.5538362,18 36,18.4438648 36,19 L36,19 C36,19.5522847 35.5601869,20 35.0034652,20 L8.99653482,20 C8.44616384,20 8,19.5561352 8,19 L8,19 Z" id="Rectangle-266" fill="#FFFFFF"></path>
                        <path d="M12,16 L16,6 L22,10 L28,6 L32,16 L12,16 Z M17,10 L16,14 L20,14 L17,10 Z" id="Path-38" fill="#FFFFFF"></path>
                        <g id="Group" transform="translate(10.000000, 22.000000)">
                            <rect id="Rectangle-287" fill="#FFFFFF" x="2" y="0" width="6" height="6"></rect>
                            <rect id="Rectangle-288" fill="#FFFFFF" x="0" y="0" width="24" height="2"></rect>
                            <rect id="Rectangle-287" fill="#FFFFFF" x="16" y="0" width="6" height="6"></rect>
                            <path d="M18,12 C18,9.790861 15.3137085,8 12,8 C8.6862915,8 6,9.790861 6,12 L18,12 Z" id="Oval-121" fill="#FFFFFF"></path>
                            <path d="M14,14 C14,15.1045695 13.1045695,16 12,16 C10.8954305,16 10,15.1045695 10,14 L14,14 Z" id="Oval-122" fill="#FFFFFF"></path>
                            <rect id="Rectangle-290" fill="#D61836" x="10" y="4" width="4" height="6" rx="4"></rect>
                        </g>
                        <path d="M14,14 L12,18" id="Path-40" stroke="#FFFFFF" stroke-width="2"></path>
                        <path d="M32,14 L30,18" id="Path-40" stroke="#FFFFFF" stroke-width="2" transform="translate(31.000000, 16.000000) scale(-1, 1) translate(-31.000000, -16.000000) "></path>
                    </g>
                  </g>
                  <g class="attack a-3">
                    <g id="attack-3" transform="translate(122.000000, 0.000000)" sketch:type="MSShapeGroup">
                        <rect id="bounds" fill="#D61836" x="0" y="0" width="44" height="44" rx="100"></rect>
                        <path d="M8,19 C8,18.4477153 8.43981314,18 8.99653482,18 L35.0034652,18 C35.5538362,18 36,18.4438648 36,19 L36,19 C36,19.5522847 35.5601869,20 35.0034652,20 L8.99653482,20 C8.44616384,20 8,19.5561352 8,19 L8,19 Z" id="Rectangle-266" fill="#FFFFFF"></path>
                        <path d="M12,16 L16,6 L22,10 L28,6 L32,16 L12,16 Z M17,10 L16,14 L20,14 L17,10 Z" id="Path-38" fill="#FFFFFF"></path>
                        <g id="Group" transform="translate(10.000000, 22.000000)">
                            <rect id="Rectangle-287" fill="#FFFFFF" x="2" y="0" width="6" height="6"></rect>
                            <rect id="Rectangle-288" fill="#FFFFFF" x="0" y="0" width="24" height="2"></rect>
                            <rect id="Rectangle-287" fill="#FFFFFF" x="16" y="0" width="6" height="6"></rect>
                            <path d="M18,12 C18,9.790861 15.3137085,8 12,8 C8.6862915,8 6,9.790861 6,12 L18,12 Z" id="Oval-121" fill="#FFFFFF"></path>
                            <path d="M14,14 C14,15.1045695 13.1045695,16 12,16 C10.8954305,16 10,15.1045695 10,14 L14,14 Z" id="Oval-122" fill="#FFFFFF"></path>
                            <rect id="Rectangle-290" fill="#D61836" x="10" y="4" width="4" height="6" rx="4"></rect>
                        </g>
                        <path d="M14,14 L12,18" id="Path-40" stroke="#FFFFFF" stroke-width="2"></path>
                        <path d="M32,14 L30,18" id="Path-40" stroke="#FFFFFF" stroke-width="2" transform="translate(31.000000, 16.000000) scale(-1, 1) translate(-31.000000, -16.000000) "></path>
                    </g>
                  </g>
                  <g class="attack a-4">
                    <g id="attack-4" sketch:type="MSShapeGroup">
                        <rect id="bounds" fill="#D61836" x="0" y="0" width="44" height="44" rx="100"></rect>
                        <path d="M8,19 C8,18.4477153 8.43981314,18 8.99653482,18 L35.0034652,18 C35.5538362,18 36,18.4438648 36,19 L36,19 C36,19.5522847 35.5601869,20 35.0034652,20 L8.99653482,20 C8.44616384,20 8,19.5561352 8,19 L8,19 Z" id="Rectangle-266" fill="#FFFFFF"></path>
                        <path d="M12,16 L16,6 L22,10 L28,6 L32,16 L12,16 Z M17,10 L16,14 L20,14 L17,10 Z" id="Path-38" fill="#FFFFFF"></path>
                        <g id="Group" transform="translate(10.000000, 22.000000)">
                            <rect id="Rectangle-287" fill="#FFFFFF" x="2" y="0" width="6" height="6"></rect>
                            <rect id="Rectangle-288" fill="#FFFFFF" x="0" y="0" width="24" height="2"></rect>
                            <rect id="Rectangle-287" fill="#FFFFFF" x="16" y="0" width="6" height="6"></rect>
                            <path d="M18,12 C18,9.790861 15.3137085,8 12,8 C8.6862915,8 6,9.790861 6,12 L18,12 Z" id="Oval-121" fill="#FFFFFF"></path>
                            <path d="M14,14 C14,15.1045695 13.1045695,16 12,16 C10.8954305,16 10,15.1045695 10,14 L14,14 Z" id="Oval-122" fill="#FFFFFF"></path>
                            <rect id="Rectangle-290" fill="#D61836" x="10" y="4" width="4" height="6" rx="4"></rect>
                        </g>
                        <path d="M14,14 L12,18" id="Path-40" stroke="#FFFFFF" stroke-width="2"></path>
                        <path d="M32,14 L30,18" id="Path-40" stroke="#FFFFFF" stroke-width="2" transform="translate(31.000000, 16.000000) scale(-1, 1) translate(-31.000000, -16.000000) "></path>
                    </g>
                  </g>
                </g>
            </g>
        </g>
    </g>
    <script type="text/javascript">
      var elements = document.querySelectorAll('#circle-protection, .attack, .rescue')
      setTimeout(function(){
        [].forEach.call(elements, function(element) {
          element.classList.add('hover');
        });
      }, 2000);
    </script>
</svg>
