<svg xmlns="http://www.w3.org/2000/svg" xmlns:xlink="http://www.w3.org/1999/xlink" style="display:none;">
  <symbol id="icon-phone" viewBox="0 0 30 30">
    <circle class="icon-phone-bounds" opacity=".849" cx="15" cy="15" r="15"/>
    <path d="M22 20V8H9.995h.996c.558 0 1.1.444 1.208.988L13 13l-2.258 1.505c1.14 1.97 2.783 3.612 4.753 4.753L17 17l4.012.802c.544.11.988.645.988 1.197v1zM7 8h15v15C13.716 23 7 16.284 7 8z" fill="#FFF"/>
  </symbol>

  <symbol id="icon-carret-down" viewBox="0 0 17 10">
    <path d="M8.5 7.143L1.417 0 0 1.43l7.792 7.856L8.5 10 17 1.43 15.583 0 8.5 7.143z" fill="#FFF" fill-rule="evenodd" opacity=".2"/>
  </symbol>

  <symbol id="icon-check" viewBox="0 0 152 152">
    <g transform="translate(1 1)" stroke-width="2" stroke="#D61836" fill="none" fill-rule="evenodd">
      <circle cx="75" cy="75" r="75"/>
      <path d="M50 90l10.198 10.198 41.37-41.37"/>
    </g>
  </symbol>

  <symbol id="icon-close" viewBox="0 0 16 16">
    <path d="M8.707 8l6.718-6.718-.707-.707L8 7.293 1.282.575l-.707.707L7.293 8 .575 14.718l.707.707L8 8.707l6.718 6.718.707-.707L8.707 8z" fill="#D8D8D8" fill-rule="evenodd" opacity=".5"/>
  </symbol>

  <symbol id="icon-attack" viewBox="0 0 22 22">
    <path d="M4 9.5c0-.276.22-.5.498-.5h13.004c.275 0 .498.232.498.5 0 .276-.22.5-.498.5H4.498C4.223 10 4 9.768 4 9.5zM6 8l2-5 3 2 3-2 2 5H6zm6 10c0 .552-.448 1-1 1s-1-.448-1-1h2zm2-1c0-1.105-1.343-2-3-2s-3 .895-3 2h6zm2-5h1v-1H5v1h1v.5c0 .834.672 1.5 1.5 1.5.834 0 1.5-.672 1.5-1.5V12h4v.5c0 .834.672 1.5 1.5 1.5.834 0 1.5-.672 1.5-1.5V12z" fill="#2F2F2F"/>
    <path d="M6.553 6.776l-1 2 .894.448 1-2-.894-.448zm8 .448l1 2 .894-.448-1-2-.894.448z" fill="#2F2F2F"/>
    <path d="M8.5 5L8 7h2L8.5 5z" opacity=".487" fill="#D8D8D8"/>
    <rect fill="#D61836" x="10" y="13" width="2" height="3" rx="2"/>
  </symbol>

  <symbol id="icon-defense" viewBox="0 0 22 22">
    <g fill="none" fill-rule="evenodd">
      <mask id="icon-defense-mask" fill="#fff">
        <path d="M6 6l4.5 3v2L6 8V6zm9 0l-4.5 3v2L15 8V6zm-9 4l4.5 3v2L6 12v-2zm9 0l-4.5 3v2l4.5-3v-2z"/>
      </mask>
      <path d="M10.5 3.5h5.502c.827 0 1.498.676 1.498 1.506V12.5c0 3.866-5.385 7-7 7v-16z" fill="#D8D8D8"/>
      <path d="M17.5 12.5V5.006c0-.83-.67-1.506-1.498-1.506H4.998c-.823 0-1.498.674-1.498 1.506V12.5c0 3.866 5.385 7 7 7 1.615 0 7-3.134 7-7z" stroke="#2F2F2F"/>
      <path d="M15.5 11.97V6.007c0-.293-.228-.508-.51-.508H6.01c-.282 0-.51.227-.51.508v5.96c0 2.78 3.846 5.032 5 5.032s5-2.253 5-5.03z" stroke="#2F2F2F" fill="#2F2F2F"/>
      <mask id="icon-defense-b" fill="#fff">
        <use xlink:href="#icon-defense-a"/>
      </mask>
      <path d="M6 6l4.5 3v2L6 8V6zm9 0l-4.5 3v2L15 8V6zm-9 4l4.5 3v2L6 12v-2zm9 0l-4.5 3v2l4.5-3v-2z" fill="#D61836"/>
      <path opacity=".167" fill="#FFF" mask="url(#icon-defense-mask)" d="M6 6h4.5v9H6z"/>
    </g>
  </symbol>

  <symbol id="icon-investigation" viewBox="0 0 22 22">
    <g fill="none" fill-rule="evenodd">
      <mask id="icon-investigation-mask" fill="#fff">
        <circle cx="13" cy="9" r="4"/>
      </mask>
      <path d="M7 9c.552 0 1-.448 1-1s-.448-1-1-1-1 .448-1 1 .448 1 1 1zm0 3c.552 0 1-.448 1-1s-.448-1-1-1-1 .448-1 1 .448 1 1 1z" fill="#909090"/>
      <path d="M4 9c.552 0 1-.448 1-1s-.448-1-1-1-1 .448-1 1 .448 1 1 1zm3-3c.552 0 1-.448 1-1s-.448-1-1-1-1 .448-1 1 .448 1 1 1z" fill="#B6B6B6"/>
      <path d="M9.293 11.293l-4.5 4.5 1.414 1.414 4.5-4.5-1.414-1.414z" fill="#A1A1A1"/>
      <path d="M6.293 14.293l-2.5 2.5c-.39.39-.39 1.024 0 1.414.39.39 1.024.39 1.414 0l2.5-2.5c.39-.39.39-1.024 0-1.414-.39-.39-1.024-.39-1.414 0z" fill="#2F2F2F"/>
      <circle stroke="#2F2F2F" fill="#FFF" cx="13" cy="9" r="5.5"/>
      <circle fill="#2F2F2F" cx="13" cy="9" r="4"/>
      <path d="M13 9c.552 0 1-.448 1-1s-.448-1-1-1-1 .448-1 1 .448 1 1 1zm0 3c.552 0 1-.448 1-1s-.448-1-1-1-1 .448-1 1 .448 1 1 1zm3 0c.552 0 1-.448 1-1s-.448-1-1-1-1 .448-1 1 .448 1 1 1zm0-3c.552 0 1-.448 1-1s-.448-1-1-1-1 .448-1 1 .448 1 1 1zm-6 0c.552 0 1-.448 1-1s-.448-1-1-1-1 .448-1 1 .448 1 1 1zm0 3c.552 0 1-.448 1-1s-.448-1-1-1-1 .448-1 1 .448 1 1 1zm3-6c.552 0 1-.448 1-1s-.448-1-1-1-1 .448-1 1 .448 1 1 1z" fill="#D61836" mask="url(#icon-investigation-mask)"/>
    </g>
  </symbol>

  <symbol id="icon-formation" viewBox="0 0 22 22">
    <path d="M7.5 19H6v3l1.5-1.5L9 22v-3H7.5z" fill="#C81A35"/>
    <rect stroke="#2F2F2F" fill="#E6E6E6" x="4.5" y="3.5" width="13" height="16" rx="1"/>
    <path fill="#2F2F2F" d="M6 4h11v15H6z"/>
    <path fill="#D61836" d="M8 6h6v1H8z"/>
    <path fill="#FFF" d="M8 8h4v1H8z"/>
    <path opacity=".623" fill="#FFF" d="M8 16h2v1H8z"/>
  </symbol>
</svg>
